<svg xmlns="http://www.w3.org/2000/svg" width="800" height="800" viewBox="0 0 800 800" version="1.1"><path d="M 290 44.500 C 287.571 46.975, 285.809 49, 286.084 49 C 286.359 49, 288.571 46.975, 291 44.500 C 293.429 42.025, 295.191 40, 294.916 40 C 294.641 40, 292.429 42.025, 290 44.500 M 482.462 74.781 C 487.297 79.865, 489.633 81.726, 486.872 78.293 C 485.060 76.039, 482.902 73.937, 479.931 71.531 C 478.594 70.448, 479.733 71.910, 482.462 74.781 M 554.511 273.964 C 554.142 275.128, 551.963 277.933, 549.670 280.198 C 546.138 283.687, 545.987 283.984, 548.679 282.141 C 551.910 279.929, 556.659 273.326, 555.705 272.372 C 555.418 272.085, 554.881 272.801, 554.511 273.964" stroke="none" fill="#6d6d6d" fill-rule="evenodd"/><path d="M 382 0.614 C 379.525 0.841, 374.462 1.696, 370.750 2.513 C 367.038 3.331, 360.738 4.717, 356.750 5.593 C 349.381 7.212, 331.376 14.548, 324.986 18.535 C 323.053 19.740, 319.003 21.973, 315.986 23.496 C 312.969 25.018, 309.259 27.555, 307.741 29.132 C 306.224 30.709, 304.781 32, 304.535 32 C 304.290 32, 300.356 35.615, 295.794 40.033 C 291.232 44.451, 286.150 49.003, 284.500 50.148 C 279.904 53.337, 268 69.165, 268 72.085 C 268 72.978, 266.915 74.879, 265.589 76.310 C 261.410 80.819, 253.257 98.034, 249.397 110.500 C 245.535 122.970, 243.130 137.652, 243.048 149.250 L 243 156 192.750 155.997 C 142.597 155.994, 142.491 155.999, 138.064 158.247 C 128.185 163.265, 127.360 164.967, 125.467 184.232 C 124.641 192.630, 123.313 205.800, 122.514 213.500 C 121.716 221.200, 120.571 234.025, 119.971 242 C 119.371 249.975, 118.226 263.700, 117.426 272.500 C 116.627 281.300, 115.088 299.300, 114.007 312.500 C 112.925 325.700, 111.586 340.775, 111.029 346 C 110.473 351.225, 109.563 360.450, 109.007 366.500 C 108.450 372.550, 107.540 382.225, 106.985 388 C 106.429 393.775, 105.309 406.150, 104.494 415.500 C 103.680 424.850, 102.338 439.925, 101.511 449 C 99.456 471.542, 98.408 483.456, 96.011 511.500 C 94.882 524.700, 92.852 547.650, 91.499 562.500 C 90.146 577.350, 87.457 607.500, 85.524 629.500 C 83.591 651.500, 81.482 675.125, 80.839 682 C 79.967 691.321, 79.952 697.043, 80.780 704.500 C 82.272 717.921, 83.337 721.569, 89.627 734.806 C 92.582 741.024, 95 746.488, 95 746.949 C 95 747.409, 95.675 748.045, 96.500 748.362 C 97.325 748.678, 98 749.626, 98 750.469 C 98 751.311, 98.338 752.011, 98.750 752.025 C 99.162 752.038, 102.425 755.617, 106 759.978 C 109.575 764.339, 113.022 767.928, 113.661 767.953 C 114.300 767.979, 115.958 769.350, 117.347 771 C 118.735 772.650, 120.334 774, 120.900 774 C 121.466 774, 122.411 774.900, 123 776 C 123.589 777.100, 124.730 778, 125.535 778 C 126.341 778, 127 778.382, 127 778.848 C 127 779.746, 143.107 787.864, 151.419 791.156 C 154.124 792.227, 160.874 794.534, 166.419 796.281 L 176.500 799.458 393.249 799.747 C 527.545 799.925, 613.136 799.670, 618.249 799.074 C 627.419 798.005, 639.850 795.338, 641.457 794.094 C 642.031 793.650, 645.659 792.097, 649.520 790.644 C 653.382 789.190, 660 785.976, 664.229 783.500 C 668.457 781.025, 672.141 779, 672.415 779 C 672.689 779, 674.845 777.203, 677.207 775.006 C 679.568 772.809, 682.400 770.722, 683.500 770.369 C 685.830 769.620, 695 760.607, 695 759.065 C 695 758.488, 695.900 757.455, 697 756.768 C 698.100 756.081, 699 754.975, 699 754.309 C 699 753.644, 699.563 752.740, 700.250 752.300 C 703.407 750.280, 713.097 730.147, 716.402 718.741 C 719.549 707.881, 720.583 692.884, 719.073 680 C 718.460 674.775, 717.331 663.075, 716.564 654 C 715.796 644.925, 714.246 627.600, 713.119 615.500 C 711.078 593.587, 707.449 552.914, 706.518 541.500 C 706.249 538.200, 705.143 526.050, 704.061 514.500 C 702.978 502.950, 701.369 484.725, 700.485 474 C 699.600 463.275, 698.440 450.521, 697.907 445.658 C 697.373 440.795, 696.522 431.570, 696.016 425.158 C 695.509 418.746, 694.192 403.150, 693.090 390.500 C 691.988 377.850, 690.603 361.875, 690.014 355 C 689.424 348.125, 688.483 337.775, 687.921 332 C 687.359 326.225, 686.263 314.975, 685.485 307 C 684.707 299.025, 683.628 287.100, 683.087 280.500 C 681.744 264.101, 679.312 235.866, 677.533 216 C 676.720 206.925, 675.599 193.532, 675.042 186.237 C 674.139 174.416, 673.691 172.324, 670.913 166.987 C 669.200 163.694, 667.369 161, 666.846 161 C 666.322 161, 664.238 159.875, 662.215 158.500 L 658.536 156 607.768 156 L 557 156 557.001 152.250 C 557.004 143.742, 552.731 114.868, 549.860 104 C 548.142 97.493, 542.017 84.474, 539.981 83 C 539.602 82.725, 538.663 81.348, 537.895 79.939 C 535.506 75.554, 524.693 61, 523.825 61 C 523.371 61, 523 60.550, 523 60 C 523 59.450, 522.212 58.176, 521.250 57.169 C 520.288 56.163, 517.547 53.013, 515.161 50.169 C 512.774 47.326, 510.299 45.003, 509.661 45.006 C 509.022 45.009, 506.475 42.998, 504 40.537 C 496.789 33.365, 491.791 29, 490.790 29 C 490.279 29, 487.979 27.710, 485.680 26.133 C 472.202 16.888, 452.702 8.295, 435.587 4.060 C 424.158 1.233, 421.012 0.876, 404.681 0.556 C 394.682 0.361, 384.475 0.387, 382 0.614 M 381.500 41.523 C 378.200 42.272, 372.548 43.529, 368.941 44.315 C 365.334 45.101, 361.509 46.186, 360.441 46.725 C 355.496 49.223, 351.285 50.981, 348.935 51.527 C 347.524 51.856, 344.922 53.359, 343.154 54.869 C 341.385 56.379, 337.476 58.860, 334.469 60.383 C 331.461 61.906, 329 63.465, 329 63.847 C 329 64.681, 315.216 78.873, 308.941 84.500 C 304.229 88.725, 298 97.395, 298 99.728 C 298 100.489, 296.626 103.881, 294.947 107.266 C 288.940 119.372, 283.580 140.924, 284.186 150.529 L 284.500 155.500 400.354 155.754 L 516.209 156.008 515.493 147.919 C 515.099 143.470, 514.139 137.056, 513.359 133.665 C 512.579 130.274, 511.502 125.500, 510.964 123.055 C 510.427 120.611, 509.653 118.361, 509.244 118.055 C 508.835 117.750, 507.090 114.350, 505.366 110.500 C 503.642 106.650, 500.972 100.688, 499.432 97.250 C 497.892 93.813, 496.265 91, 495.816 91 C 495.367 91, 495 90.086, 495 88.969 C 495 87.851, 494.325 86.678, 493.500 86.362 C 492.675 86.045, 492 85.240, 492 84.573 C 492 83.906, 490.988 82.423, 489.750 81.276 C 488.512 80.130, 486.106 77.686, 484.403 75.846 C 480.285 71.398, 476.213 68, 475.001 68 C 474.460 68, 473.455 67.100, 472.768 66 C 472.081 64.900, 471 64, 470.366 64 C 469.733 64, 468.955 63.325, 468.638 62.500 C 468.322 61.675, 467.374 61, 466.531 61 C 465.689 61, 465 60.550, 465 60 C 465 59.450, 464.391 59, 463.646 59 C 462.901 59, 461.193 57.987, 459.850 56.750 C 458.507 55.513, 454.954 53.436, 451.954 52.136 C 448.954 50.836, 445.653 49.332, 444.618 48.795 C 441.693 47.277, 434.909 44.968, 430.500 43.991 C 428.300 43.504, 423.575 42.422, 420 41.588 C 411.815 39.677, 389.786 39.640, 381.500 41.523 M 166 199 C 164.565 200.435, 163.998 202.341, 163.992 205.750 C 163.987 208.363, 163.516 214.550, 162.944 219.500 C 161.887 228.656, 159.775 252.419, 158.012 275 C 157.476 281.875, 156.597 291.100, 156.059 295.500 C 155.522 299.900, 154.812 307.775, 154.482 313 C 154.152 318.225, 153.203 329.475, 152.373 338 C 151.544 346.525, 150.242 361.150, 149.479 370.500 C 148.717 379.850, 147.439 393.350, 146.639 400.500 C 145.839 407.650, 144.892 418.225, 144.534 424 C 143.804 435.765, 140.583 473.468, 139.066 488 C 138.520 493.225, 137.822 500.875, 137.515 505 C 137.207 509.125, 136.527 516.550, 136.004 521.500 C 135.481 526.450, 134.565 536.575, 133.969 544 C 133.372 551.425, 132.241 564.025, 131.454 572 C 130.090 585.822, 129.388 594.040, 127.052 623.500 C 126.485 630.650, 125.561 641, 124.998 646.500 C 120.236 693.018, 119.950 701.702, 122.901 710.093 C 125.892 718.595, 129.153 725.428, 130.638 726.300 C 131.387 726.740, 132 727.644, 132 728.309 C 132 728.975, 132.900 730.081, 134 730.768 C 135.100 731.455, 136 732.652, 136 733.428 C 136 734.205, 138.487 737.057, 141.527 739.767 C 146.095 743.837, 153.558 748.190, 166.211 754.161 C 167.152 754.605, 171.202 755.969, 175.211 757.192 L 182.500 759.416 393 759.779 C 549.469 760.050, 605.682 759.844, 612 758.978 C 625.757 757.092, 640.833 751.984, 647.355 747 C 655.051 741.118, 667.145 728.735, 671.067 722.723 C 679.261 710.160, 680.288 702.095, 677.466 672.500 C 676.627 663.700, 675.512 651.100, 674.988 644.500 C 674.465 637.900, 673.351 625.300, 672.513 616.500 C 669.841 588.436, 669.042 579.679, 668.452 572 C 668.135 567.875, 667.004 555.275, 665.939 544 C 664.874 532.725, 663.116 513.150, 662.031 500.500 C 656.767 439.076, 655.834 428.301, 654.412 412.500 C 652.613 392.514, 651.522 381.205, 650.070 367.500 C 649.488 362, 648.576 350.750, 648.043 342.500 C 647.510 334.250, 646.391 320.075, 645.555 311 C 644.719 301.925, 643.081 284.150, 641.914 271.500 C 640.748 258.850, 639.401 244.225, 638.921 239 C 638.441 233.775, 637.541 224.550, 636.921 218.500 C 636.301 212.450, 635.573 205.137, 635.304 202.250 L 634.815 197 595.907 197 L 557 197 557 233.503 L 557 270.006 554.250 274.390 C 552.737 276.801, 549.545 280.399, 547.155 282.387 C 543.372 285.534, 542.145 285.994, 537.655 285.952 C 534.571 285.923, 531.094 285.142, 529 284.006 C 527.075 282.963, 524.507 281.653, 523.293 281.096 C 522.080 280.538, 520.167 278.179, 519.043 275.853 C 517.098 271.826, 517 269.841, 517 234.312 L 517 197 400 197 L 283 197 283 235 C 283 257.836, 282.628 273, 282.067 273 C 281.554 273, 280.828 273.966, 280.454 275.146 C 279.594 277.853, 275.646 281.443, 270.555 284.146 C 267.463 285.787, 265.489 286.124, 261.427 285.705 C 255.575 285.101, 253.561 284.084, 247.653 278.750 L 243.500 275.001 243.216 236 L 242.933 197 205.466 197 C 169.333 197, 167.929 197.071, 166 199" stroke="none" fill="#fbfbfb" fill-rule="evenodd"/></svg>