<svg xmlns="http://www.w3.org/2000/svg" width="240" height="240" viewBox="0 0 240 240" version="1.1"><path d="M 141.750 12.662 C 142.438 12.940, 143.563 12.940, 144.250 12.662 C 144.938 12.385, 144.375 12.158, 143 12.158 C 141.625 12.158, 141.063 12.385, 141.750 12.662 M 169 21.430 C 169 21.705, 169.900 22.411, 171 23 C 172.100 23.589, 173 23.845, 173 23.570 C 173 23.295, 172.100 22.589, 171 22 C 169.900 21.411, 169 21.155, 169 21.430 M 97.813 31.683 C 98.534 31.972, 99.397 31.936, 99.729 31.604 C 100.061 31.272, 99.471 31.036, 98.417 31.079 C 97.252 31.127, 97.015 31.364, 97.813 31.683 M 68.441 44.555 C 66.577 46.049, 66.589 46.067, 68.750 45.020 C 69.987 44.420, 71 43.720, 71 43.465 C 71 42.700, 70.481 42.921, 68.441 44.555 M 60 51.059 C 60 51.641, 60.450 51.840, 61 51.500 C 61.550 51.160, 62 50.684, 62 50.441 C 62 50.198, 61.550 50, 61 50 C 60.450 50, 60 50.477, 60 51.059 M 48.924 62.750 L 46.500 65.500 49.250 63.076 C 51.820 60.810, 52.459 60, 51.674 60 C 51.495 60, 50.258 61.237, 48.924 62.750 M 85.624 77.539 C 84.659 80.053, 84.943 80.702, 86.122 78.675 C 86.706 77.671, 86.973 76.639, 86.715 76.382 C 86.458 76.124, 85.966 76.645, 85.624 77.539 M 36.111 83.111 C 34.656 87.285, 35.351 87.980, 37 84 C 37.698 82.315, 38.036 80.702, 37.750 80.417 C 37.465 80.131, 36.727 81.344, 36.111 83.111 M 155.195 82.500 C 155.215 84.150, 155.439 84.704, 155.693 83.731 C 155.947 82.758, 155.930 81.408, 155.656 80.731 C 155.382 80.054, 155.175 80.850, 155.195 82.500 M 33.111 91.111 C 32.495 92.878, 32.166 94.499, 32.380 94.713 C 32.594 94.927, 33.273 93.656, 33.889 91.889 C 34.505 90.122, 34.834 88.501, 34.620 88.287 C 34.406 88.073, 33.727 89.344, 33.111 91.111 M 156.252 91.500 C 156.263 93.700, 156.468 94.482, 156.707 93.238 C 156.946 91.994, 156.937 90.194, 156.687 89.238 C 156.437 88.282, 156.241 89.300, 156.252 91.500 M 83.337 103.968 C 83.920 106.151, 84.561 107.772, 84.763 107.571 C 85.400 106.933, 83.812 100, 83.028 100 C 82.615 100, 82.755 101.786, 83.337 103.968 M 210.195 106.500 C 210.215 108.150, 210.439 108.704, 210.693 107.731 C 210.947 106.758, 210.930 105.408, 210.656 104.731 C 210.382 104.054, 210.175 104.850, 210.195 106.500 M 211.272 116 C 211.272 118.475, 211.467 119.487, 211.706 118.250 C 211.944 117.013, 211.944 114.987, 211.706 113.750 C 211.467 112.513, 211.272 113.525, 211.272 116 M 12.158 143 C 12.158 144.375, 12.385 144.938, 12.662 144.250 C 12.940 143.563, 12.940 142.438, 12.662 141.750 C 12.385 141.063, 12.158 141.625, 12.158 143 M 99 148.155 C 99 150.540, 98.014 152.248, 94.958 155.155 C 92.735 157.270, 91.333 159, 91.844 159 C 92.354 159, 94.398 157.326, 96.386 155.279 C 99.047 152.540, 100 150.693, 100 148.279 C 100 146.476, 99.775 145, 99.500 145 C 99.225 145, 99 146.420, 99 148.155 M 14.079 151.583 C 14.127 152.748, 14.364 152.985, 14.683 152.188 C 14.972 151.466, 14.936 150.603, 14.604 150.271 C 14.272 149.939, 14.036 150.529, 14.079 151.583 M 38 160.941 C 38 161.459, 38.445 162.157, 38.989 162.493 C 39.555 162.843, 39.723 162.442, 39.382 161.552 C 38.717 159.820, 38 159.503, 38 160.941 M 198.144 166.750 C 197.053 169.300, 197.078 169.359, 198.484 167.559 C 199.318 166.491, 200 165.254, 200 164.809 C 200 163.289, 199.322 163.999, 198.144 166.750 M 65.813 166.683 C 66.534 166.972, 67.397 166.936, 67.729 166.604 C 68.061 166.272, 67.471 166.036, 66.417 166.079 C 65.252 166.127, 65.015 166.364, 65.813 166.683 M 22.500 172 C 23.353 173.650, 24.276 175, 24.551 175 C 24.826 175, 24.353 173.650, 23.500 172 C 22.647 170.350, 21.724 169, 21.449 169 C 21.174 169, 21.647 170.350, 22.500 172 M 191.872 175.750 C 190.629 177.336, 190.664 177.371, 192.250 176.128 C 193.916 174.821, 194.445 174, 193.622 174 C 193.415 174, 192.627 174.787, 191.872 175.750 M 210.872 181.750 C 209.629 183.336, 209.664 183.371, 211.250 182.128 C 212.916 180.821, 213.445 180, 212.622 180 C 212.415 180, 211.627 180.787, 210.872 181.750 M 204.872 189.750 C 203.629 191.336, 203.664 191.371, 205.250 190.128 C 206.213 189.373, 207 188.585, 207 188.378 C 207 187.555, 206.179 188.084, 204.872 189.750" stroke="#f4f" fill="#f4f4f4" fill-rule="evenodd"/><path d="M 106.242 11.141 C 94.197 13.077, 70.772 21.089, 64.100 25.555 C 61.681 27.175, 59 28.950, 58.143 29.500 C 57.286 30.050, 56.074 30.950, 55.451 31.500 C 54.827 32.050, 52.824 33.625, 51 35 C 49.176 36.375, 47.173 37.950, 46.549 38.500 C 45.926 39.050, 44.565 39.980, 43.525 40.567 C 42.485 41.154, 41.154 42.485, 40.567 43.525 C 39.980 44.565, 39.050 45.918, 38.500 46.532 C 37.950 47.146, 36.375 49.116, 35 50.910 C 33.625 52.705, 31.938 54.777, 31.250 55.515 C 30.563 56.253, 30 57.128, 30 57.459 C 30 57.790, 28.454 59.418, 26.565 61.077 C 23.209 64.023, 22.447 65.645, 18.139 79 C 11.868 98.441, 10.769 104.765, 10.632 122.199 C 10.536 134.375, 10.839 139.238, 11.750 140.149 C 12.438 140.837, 13.009 142.322, 13.021 143.450 C 13.066 147.861, 18.122 162.477, 22.134 169.797 C 24.456 174.034, 26.663 177.725, 27.039 178 C 27.414 178.275, 28.521 180.060, 29.499 181.968 C 30.476 183.875, 34.733 189.050, 38.959 193.468 C 43.184 197.885, 47.465 202.762, 48.471 204.304 C 49.477 205.846, 53.270 208.609, 56.900 210.445 C 87.447 225.891, 88.847 226.383, 107.500 228.202 C 121.752 229.592, 131.788 229.367, 142 227.426 C 146.125 226.642, 151.680 226, 154.344 226 C 158.241 226, 159.283 225.633, 159.678 224.122 C 160.372 221.469, 164.216 220, 170.465 220 C 177.668 220, 178.833 219.406, 179.595 215.347 C 180.006 213.156, 181.208 211.273, 182.872 210.213 C 185.281 208.680, 196.494 199.941, 198.248 198.229 C 199.409 197.097, 207.341 186.872, 209.868 183.250 C 211.116 181.463, 212.720 180, 213.433 180 C 214.147 180, 215.916 179.067, 217.365 177.927 C 219.581 176.185, 220 175.063, 220 170.879 C 220 167.915, 220.824 164.204, 222.037 161.702 C 226.598 152.292, 229.965 132.669, 229.965 115.500 C 229.965 108.852, 228.892 101.532, 226.521 92 C 224.946 85.669, 220.584 74.383, 218.055 70.093 C 216.375 67.243, 215 64.739, 215 64.527 C 215 62.882, 205.691 50.804, 198.851 43.575 C 191.259 35.551, 179.022 25.780, 178.985 27.713 C 178.976 28.146, 178.639 28.018, 178.235 27.428 C 176.344 24.670, 160.849 17.308, 151 14.488 C 150.725 14.409, 148.700 14.018, 146.500 13.618 C 144.300 13.218, 141.600 12.368, 140.500 11.729 C 138.090 10.330, 113.876 9.914, 106.242 11.141 M 120.067 29.337 C 119.385 30.021, 114.084 30.715, 107.204 31.021 C 97.496 31.454, 94.221 32.036, 88 34.433 C 83.875 36.023, 80.275 37.608, 80 37.955 C 79.725 38.302, 76.860 39.904, 73.633 41.516 C 70.406 43.127, 67.546 45.020, 67.276 45.723 C 67.007 46.425, 66.145 47, 65.362 47 C 64.578 47, 63.678 47.675, 63.362 48.500 C 63.045 49.325, 62.159 50, 61.393 50 C 60.627 50, 60 50.816, 60 51.813 C 60 53.721, 56.367 57.478, 51.760 60.334 C 48.615 62.284, 40 74.632, 40 77.190 C 40 78.131, 39.364 79.260, 38.587 79.700 C 35.923 81.208, 30.448 98.938, 28.570 112.142 C 27.747 117.928, 29.606 136.978, 31.581 143 C 32.393 145.475, 34.196 149.635, 35.588 152.245 C 36.980 154.854, 38.205 158.004, 38.310 159.245 C 38.782 164.842, 44.730 168.984, 52.307 168.994 C 56.633 168.999, 64.014 167.722, 68 166.279 C 68.825 165.980, 70.518 165.600, 71.762 165.435 C 73.006 165.269, 76.466 163.979, 79.450 162.567 C 82.434 161.155, 85.775 160, 86.873 160 C 92.526 160, 99.987 153.572, 99.995 148.695 C 99.998 147.153, 98.602 142.653, 96.893 138.695 C 94.289 132.665, 91.247 125.273, 86.525 113.500 C 86.083 112.400, 85.637 110.825, 85.533 110 C 84.860 104.657, 83.660 100.517, 82.428 99.285 C 79.614 96.471, 81.706 80, 84.878 80 C 85.345 80, 86.517 77.934, 87.482 75.409 C 89.598 69.868, 95.961 63.282, 102.039 60.343 C 112.430 55.318, 118.510 55.030, 132.883 58.881 C 139.144 60.559, 145.035 62.627, 145.975 63.478 C 146.915 64.328, 149.348 67.440, 151.382 70.393 C 154.991 75.634, 155.093 76.036, 155.652 87.266 C 156.095 96.170, 155.832 100.548, 154.489 106.635 C 151.530 120.044, 150.008 124.937, 146.543 132.191 L 143.195 139.199 145.443 142.511 C 146.679 144.333, 148.253 148, 148.941 150.662 C 151.375 160.080, 151.798 160.689, 156.826 162.015 C 159.397 162.693, 165.100 164.286, 169.500 165.556 C 173.900 166.826, 178.662 168.110, 180.083 168.410 C 181.504 168.709, 184.728 170.769, 187.248 172.987 L 191.828 177.019 195.914 171.259 C 198.161 168.092, 200 164.745, 200 163.821 C 200 162.898, 200.606 161.537, 201.346 160.797 C 202.704 159.439, 204.852 155.029, 206.849 149.500 C 210.710 138.811, 212.675 119.456, 211.010 108.508 C 207.644 86.379, 206.333 82.713, 197.036 69.441 C 188.455 57.189, 185.140 53.622, 179.807 50.902 C 177.519 49.734, 173.364 46.637, 170.573 44.019 C 167.783 41.401, 164.150 38.586, 162.500 37.762 C 157.344 35.190, 138.800 30.146, 132 29.466 C 128.425 29.108, 124.538 28.671, 123.363 28.494 C 122.188 28.318, 120.705 28.697, 120.067 29.337" stroke="#f3f" fill="#fcfcfc" fill-rule="evenodd"/></svg>